<?xml version="1.0" encoding="UTF-8"?>
<svg id="Layer_1" data-name="Layer 1" xmlns="http://www.w3.org/2000/svg" width="29" height="42.04" xmlns:xlink="http://www.w3.org/1999/xlink" viewBox="0 0 29 42.04">
  <defs>
    <style>
      .cls-1 {
        fill: none;
      }

      .cls-2 {
        fill: #002d5b;
      }

      .cls-3 {
        stroke: #fff;
        stroke-miterlimit: 10;
        stroke-width: 2.39px;
      }

      .cls-3, .cls-4 {
        fill: #fff;
      }

      .cls-5 {
        fill: #a30c33;
      }

      .cls-6 {
        clip-path: url(#clippath);
      }
    </style>
    <clipPath id="clippath">
      <polygon class="cls-1" points="0 .04 15.6 5.42 23.07 7.3 28.82 10.26 29 42.04 0 42.04 0 .04"/>
    </clipPath>
  </defs>
  <g class="cls-6">
    <path class="cls-3" d="M27.18,11.86c-.02-.43-.14-.84-.43-1.13-.2-.2-.53-.44-1-.7-.5-.28-1.15-.57-1.98-.84-.45-.15-.94-.29-1.49-.42-1.9-.46-4.43-.8-7.71-.8-7.63,0-11.24,1.83-12.18,2.75-.31.3-.43.76-.43,1.21v7.73c0,1.87.3,4.64,1.53,7.74.17.44.36.88.57,1.33.29.61.61,1.22.97,1.84.38.65.81,1.31,1.28,1.97.38.52.79,1.05,1.24,1.57.29.34.58.67.9,1,1.6,1.7,3.58,3.35,6.03,4.89,0,0,.04-.02.1-.04.06.02.1.04.1.04,10.89-6.84,12.52-16.02,12.52-20.35v-7.73s0-.06,0-.09h0Z"/>
    <path class="cls-2" d="M27.18,11.86L6.31,32.56c.38.52.79,1.05,1.24,1.57L27.18,14.66v-2.7s0-.06,0-.09Z"/>
    <path class="cls-2" d="M14.47,40.04s.04-.02.1-.04c.06.02.1.04.1.04,10.89-6.84,12.52-16.02,12.52-20.35v-3.14l-18.74,18.59c1.6,1.7,3.58,3.35,6.03,4.89h0Z"/>
    <path class="cls-5" d="M14.57,7.99c-7.62,0-11.24,1.83-12.18,2.75-.31.3-.43.76-.43,1.21v7.73c0,1.87.3,4.64,1.53,7.74L22.28,8.78c-1.9-.46-4.43-.8-7.71-.8h0Z"/>
    <path class="cls-5" d="M23.77,9.2L4.05,28.75c.29.61.61,1.22.97,1.84L25.75,10.04c-.5-.28-1.15-.57-1.98-.84Z"/>
    <path class="cls-4" d="M22.28,8.78L3.48,27.42c.17.44.36.88.57,1.33L23.77,9.2c-.45-.15-.94-.29-1.49-.42Z"/>
    <path class="cls-4" d="M7.54,34.14c.29.34.58.67.9,1l18.74-18.59v-1.89L7.54,34.14Z"/>
    <path class="cls-4" d="M26.75,10.74c-.2-.2-.53-.44-1-.7L5.02,30.6c.38.65.81,1.31,1.28,1.97L27.18,11.86c-.02-.43-.14-.84-.43-1.13Z"/>
  </g>
</svg>